<?xml version="1.0" encoding="UTF-8" standalone="no"?>
<!-- Created with Inkscape (http://www.inkscape.org/) -->

<svg
   xmlns:dc="http://purl.org/dc/elements/1.1/"
   xmlns:cc="http://creativecommons.org/ns#"
   xmlns:rdf="http://www.w3.org/1999/02/22-rdf-syntax-ns#"
   xmlns:svg="http://www.w3.org/2000/svg"
   xmlns="http://www.w3.org/2000/svg"
   xmlns:sodipodi="http://sodipodi.sourceforge.net/DTD/sodipodi-0.dtd"
   xmlns:inkscape="http://www.inkscape.org/namespaces/inkscape"
   width="48"
   height="48"
   viewBox="0 0 48 48"
   version="1.1"
   id="svg8"
   sodipodi:docname="icon.svg"
   inkscape:version="0.92.2 2405546, 2018-03-11"
   inkscape:export-filename="/home/iras/work/projects/riki/concept/images/favicon-small.png"
   inkscape:export-xdpi="32"
   inkscape:export-ydpi="32">
  <defs
     id="defs2" />
  <sodipodi:namedview
     id="base"
     pagecolor="#00897b"
     bordercolor="#666666"
     borderopacity="1.0"
     inkscape:pageopacity="0"
     inkscape:pageshadow="2"
     inkscape:zoom="0.98994949"
     inkscape:cx="-54.864407"
     inkscape:cy="60.057616"
     inkscape:document-units="px"
     inkscape:current-layer="layer1"
     showgrid="false"
     units="px"
     inkscape:showpageshadow="false"
     inkscape:pagecheckerboard="false"
     inkscape:window-width="3840"
     inkscape:window-height="2096"
     inkscape:window-x="0"
     inkscape:window-y="30"
     inkscape:window-maximized="1" />
  <metadata
     id="metadata5">
    <rdf:RDF>
      <cc:Work
         rdf:about="">
        <dc:format>image/svg+xml</dc:format>
        <dc:type
           rdf:resource="http://purl.org/dc/dcmitype/StillImage" />
        <dc:title></dc:title>
      </cc:Work>
    </rdf:RDF>
  </metadata>
  <g
     inkscape:label="Layer 1"
     inkscape:groupmode="layer"
     id="layer1"
     transform="translate(0,-625.53331)">
    <path
       inkscape:connector-curvature="0"
       style="opacity:1;fill:#ffffff;fill-opacity:1;stroke:none;stroke-width:0.49547252;stroke-linecap:round;stroke-linejoin:miter;stroke-miterlimit:0;stroke-dasharray:none;stroke-opacity:1;paint-order:normal"
       d="m 27.772165,628.25074 c -1.71358,2.48128 -3.23029,4.23667 -3.95991,4.23667 -0.72755,0 -2.23873,-1.74621 -3.94636,-4.21635 0.45609,4.91692 0.73339,10.12523 -2.84025,12.72164 -3.16099,2.29659 -7.3383602,1.09513 -11.3997502,-0.56515 0.36269,2.04462 0.5725301,3.76544 0.42193,4.22893 -0.14557,0.44803 -1.26423,1.65436 -2.68735,3.03477 4.22969,1.04312 8.2680602,2.5309 9.4672002,6.22146 1.39108,4.28133 -2.04471,8.40381 -5.3631102,12.17102 2.4114403,-0.21755 4.3001102,-0.22298 4.7815102,0.12677 0.48826,0.35474 1.07715,2.19478 1.6219,4.60538 2.56547,-4.33701 5.42913,-8.91754 9.95009,-8.91754 4.09613,0 6.83258,3.7686 9.21946,7.70208 0.99545,-1.7555 1.92174,-3.2239 2.29543,-3.4954 0.36675,-0.26646 1.99114,-0.68338 3.92024,-1.08095 -2.99104,-3.47538 -5.70608,-7.22931 -4.44474,-11.11136 1.23359,-3.79657 5.47115,-5.26028 9.83107,-6.30856 -1.63397,-1.32254 -2.85216,-2.46013 -3.01058,-2.94767 -0.16443,-0.50608 0.18533,-2.25461 0.76837,-4.39248 -4.18227,1.7403 -8.52472,3.09874 -11.78683,0.72869 -3.57843,-2.59989 -3.29586,-7.81894 -2.83832,-12.74195 z"
       id="path812"
       inkscape:export-filename="/home/iras/work/projects/riki/concept/layout/icon-small.png"
       inkscape:export-xdpi="96"
       inkscape:export-ydpi="96" />
  </g>
</svg>
