<?xml version="1.0" encoding="UTF-8" standalone="no"?>
<!-- Created with Inkscape (http://www.inkscape.org/) -->

<svg
   xmlns:dc="http://purl.org/dc/elements/1.1/"
   xmlns:cc="http://creativecommons.org/ns#"
   xmlns:rdf="http://www.w3.org/1999/02/22-rdf-syntax-ns#"
   xmlns:svg="http://www.w3.org/2000/svg"
   xmlns="http://www.w3.org/2000/svg"
   xmlns:sodipodi="http://sodipodi.sourceforge.net/DTD/sodipodi-0.dtd"
   xmlns:inkscape="http://www.inkscape.org/namespaces/inkscape"
   width="187"
   height="67"
   viewBox="0 0 187 67"
   version="1.1"
   id="svg8"
   sodipodi:docname="name.svg"
   inkscape:version="0.92.2 2405546, 2018-03-11">
  <defs
     id="defs2" />
  <sodipodi:namedview
     id="base"
     pagecolor="#ffffff"
     bordercolor="#666666"
     borderopacity="1.0"
     inkscape:pageopacity="0.0"
     inkscape:pageshadow="2"
     inkscape:zoom="1.979899"
     inkscape:cx="213.30235"
     inkscape:cy="-75.235647"
     inkscape:document-units="px"
     inkscape:current-layer="layer1"
     showgrid="false"
     units="px"
     inkscape:showpageshadow="false"
     inkscape:pagecheckerboard="true"
     inkscape:window-width="3840"
     inkscape:window-height="2027"
     inkscape:window-x="0"
     inkscape:window-y="30"
     inkscape:window-maximized="1" />
  <metadata
     id="metadata5">
    <rdf:RDF>
      <cc:Work
         rdf:about="">
        <dc:format>image/svg+xml</dc:format>
        <dc:type
           rdf:resource="http://purl.org/dc/dcmitype/StillImage" />
        <dc:title />
      </cc:Work>
    </rdf:RDF>
  </metadata>
  <g
     inkscape:label="Layer 1"
     inkscape:groupmode="layer"
     id="layer1"
     transform="translate(0,-606.53331)">
    <g
       aria-label="ríki"
       style="font-style:normal;font-variant:normal;font-weight:normal;font-stretch:normal;font-size:96px;line-height:41.5px;font-family:'GE Inspira';-inkscape-font-specification:'GE Inspira';text-align:center;letter-spacing:28.01997375px;word-spacing:2.06000018px;text-anchor:middle;fill:#ffffff;fill-opacity:1;stroke:none"
       id="text2304">
      <path
         d="m 32.585937,628.8302 -2.71875,10.96875 q -3.46875,-1.40625 -7.03125,-1.40625 -6.890624,0 -9.093749,6.1875 0,18.70313 0.28125,28.78125 H 1.5546875 q 0.796875,-14.10937 0.796875,-23.0625 0,-11.15625 -2.34375,-21.14062 l 11.9531255,-1.3125 q 0.796875,5.15625 0.796875,6.04687 h 0.75 q 4.312499,-6.60937 11.484374,-6.60937 3.375,0 7.59375,1.54687 z"
         style="font-style:normal;font-variant:normal;font-weight:bold;font-stretch:normal;font-family:Candara;-inkscape-font-specification:'Candara Bold';text-align:start;letter-spacing:20px;word-spacing:2.05999994px;baseline-shift:baseline;text-anchor:start;fill:#ffffff;fill-opacity:1"
         id="path3181" />
      <path
         d="M 71.898437,673.36145 H 59.289062 q 0.65625,-9.70312 0.65625,-22.26562 0,-12.46875 -1.59375,-21.84375 l 13.5,-1.35938 q -0.609375,9.09375 -0.609375,23.20313 0,12.04687 0.65625,22.26562 z m 9.984375,-66.09375 q 0,0.5625 -6.46875,7.5 -6.46875,6.9375 -6.46875,7.6875 h -8.203125 q 0,-0.75 4.21875,-7.6875 4.21875,-6.98437 4.21875,-7.5 z"
         style="font-style:normal;font-variant:normal;font-weight:bold;font-stretch:normal;font-family:Candara;-inkscape-font-specification:'Candara Bold';text-align:start;letter-spacing:20px;word-spacing:2.05999994px;baseline-shift:baseline;text-anchor:start;fill:#ffffff;fill-opacity:1"
         id="path3183" />
      <path
         d="m 145.61719,673.36145 h -14.34375 q 0,-1.73437 -7.125,-11.71875 -7.125,-10.03125 -9.09375,-10.03125 h -0.60938 q 0,9.60938 0.5625,21.75 h -12.42187 q 0.5625,-21.89062 0.5625,-34.82812 0,-17.90625 -1.45313,-31.07813 l 13.3125,-0.75 q -0.65625,17.8125 -0.65625,31.82813 0,1.78125 0.0469,6.9375 h 0.65625 q 1.3125,0 7.45312,-7.54688 6.14063,-7.59375 6.14063,-9.09375 h 13.96875 q 0,1.45313 -6.375,8.10938 -6.375,6.65625 -10.3125,9.1875 v 0.70312 q 4.35937,3.04688 12,13.875 7.6875,10.78125 7.6875,12.65625 z"
         style="font-style:normal;font-variant:normal;font-weight:bold;font-stretch:normal;font-family:Candara;-inkscape-font-specification:'Candara Bold';text-align:start;letter-spacing:20px;word-spacing:2.05999994px;baseline-shift:baseline;text-anchor:start;fill:#ffffff;fill-opacity:1"
         id="path3185" />
      <path
         d="m 184.83594,673.36145 h -12.60938 q 0.65625,-9.70312 0.65625,-22.26562 0,-12.46875 -1.59375,-21.84375 l 13.5,-1.35938 q -0.60937,9.09375 -0.60937,23.20313 0,12.04687 0.65625,22.26562 z m 2.15625,-58.6875 q 0,3.1875 -2.20313,5.57813 -2.15625,2.39062 -6.04687,2.39062 -3.28125,0 -5.15625,-2.0625 -1.82813,-2.0625 -1.82813,-4.96875 0,-3.1875 2.15625,-5.53125 2.20313,-2.34375 6.14063,-2.34375 3.32812,0 5.10937,2.0625 1.82813,2.01563 1.82813,4.875 z"
         style="font-style:normal;font-variant:normal;font-weight:bold;font-stretch:normal;font-family:Candara;-inkscape-font-specification:'Candara Bold';text-align:start;letter-spacing:20px;word-spacing:2.05999994px;baseline-shift:baseline;text-anchor:start;fill:#ffffff;fill-opacity:1"
         id="path3187" />
    </g>
  </g>
</svg>
