<?xml version="1.0" encoding="UTF-8" standalone="no"?>
<!-- Created with Inkscape (http://www.inkscape.org/) -->

<svg
   xmlns:dc="http://purl.org/dc/elements/1.1/"
   xmlns:cc="http://creativecommons.org/ns#"
   xmlns:rdf="http://www.w3.org/1999/02/22-rdf-syntax-ns#"
   xmlns:svg="http://www.w3.org/2000/svg"
   xmlns="http://www.w3.org/2000/svg"
   xmlns:sodipodi="http://sodipodi.sourceforge.net/DTD/sodipodi-0.dtd"
   xmlns:inkscape="http://www.inkscape.org/namespaces/inkscape"
   width="187"
   height="20"
   viewBox="0 0 187 20"
   version="1.1"
   id="svg8"
   sodipodi:docname="subtitle.svg"
   inkscape:version="0.92.2 2405546, 2018-03-11">
  <defs
     id="defs2" />
  <sodipodi:namedview
     id="base"
     pagecolor="#ffffff"
     bordercolor="#666666"
     borderopacity="1.0"
     inkscape:pageopacity="0.0"
     inkscape:pageshadow="2"
     inkscape:zoom="3.959798"
     inkscape:cx="92.789361"
     inkscape:cy="-42.273681"
     inkscape:document-units="px"
     inkscape:current-layer="layer1"
     showgrid="false"
     units="px"
     inkscape:showpageshadow="false"
     inkscape:pagecheckerboard="true"
     inkscape:window-width="3840"
     inkscape:window-height="2027"
     inkscape:window-x="0"
     inkscape:window-y="30"
     inkscape:window-maximized="1" />
  <metadata
     id="metadata5">
    <rdf:RDF>
      <cc:Work
         rdf:about="">
        <dc:format>image/svg+xml</dc:format>
        <dc:type
           rdf:resource="http://purl.org/dc/dcmitype/StillImage" />
        <dc:title></dc:title>
      </cc:Work>
    </rdf:RDF>
  </metadata>
  <g
     inkscape:label="Layer 1"
     inkscape:groupmode="layer"
     id="layer1"
     transform="translate(0,-653.53331)">
    <g
       aria-label="Connecting Libraries"
       style="font-style:normal;font-variant:normal;font-weight:normal;font-stretch:normal;font-size:20.19610596px;line-height:8.41504383px;font-family:'GE Inspira';-inkscape-font-specification:'GE Inspira';text-align:center;letter-spacing:0px;word-spacing:0px;text-anchor:middle;fill:#ffffff;fill-opacity:1;stroke:none;stroke-width:0.63112831"
       id="text834">
      <path
         d="m 6.9148718,655.21252 q -1.7772573,0 -3.049612,0.80784 -1.2723546,0.78765 -1.9590222,2.22157 -0.6664715,1.41373 -0.6664715,3.31217 0,1.93882 0.6058831,3.37275 0.6260793,1.43392 1.8378457,2.22157 1.2117663,0.78765 3.0294159,0.78765 1.0501975,0 1.91863,-0.16157 0.8886287,-0.16157 1.6762772,-0.40393 v 1.00981 q -0.7472563,0.28275 -1.656081,0.44431 -0.8886287,0.16157 -2.0600029,0.16157 -2.1811794,0 -3.6554951,-0.92902 -1.4541197,-0.92902 -2.20137558,-2.6053 -0.72705981,-1.67627 -0.72705981,-3.91804 0,-2.14079 0.80784423,-3.79687 0.82804036,-1.67627 2.36294436,-2.62549 1.5551002,-0.94922 3.7362796,-0.94922 2.1205912,0 3.7968682,0.80785 l -0.464511,1.0098 q -1.5752959,-0.76745 -3.3323572,-0.76745 z"
         style="font-style:normal;font-variant:normal;font-weight:300;font-stretch:normal;font-family:'Noto Sans';-inkscape-font-specification:'Noto Sans Light';fill:#ffffff;fill-opacity:1;stroke-width:0.63112831"
         id="path2592" />
      <path
         d="m 22.10329,663.41214 q 0,1.67627 -0.565491,2.92843 -0.545295,1.25216 -1.635885,1.95903 -1.070393,0.68666 -2.625493,0.68666 -1.494512,0 -2.564906,-0.68666 -1.070394,-0.68667 -1.656081,-1.93883 -0.565491,-1.25216 -0.565491,-2.94863 0,-2.6255 1.292551,-4.09981 1.312747,-1.47432 3.574711,-1.47432 1.534904,0 2.585102,0.70687 1.070393,0.68666 1.615688,1.93882 0.545295,1.25216 0.545295,2.92844 z m -8.421776,0 q 0,2.06 0.868432,3.33236 0.868433,1.25215 2.726475,1.25215 1.878237,0 2.74667,-1.25215 0.888629,-1.27236 0.888629,-3.33236 0,-1.33295 -0.36353,-2.36295 -0.36353,-1.03 -1.151178,-1.61569 -0.787648,-0.58568 -2.060003,-0.58568 -1.837846,0 -2.746671,1.21176 -0.908824,1.21177 -0.908824,3.35256 z"
         style="font-style:normal;font-variant:normal;font-weight:300;font-stretch:normal;font-family:'Noto Sans';-inkscape-font-specification:'Noto Sans Light';fill:#ffffff;fill-opacity:1;stroke-width:0.63112831"
         id="path2594" />
      <path
         d="m 29.835242,657.83801 q 1.837846,0 2.807259,0.94922 0.969413,0.94922 0.969413,2.96883 v 7.02824 h -1.151178 v -6.94746 q 0,-1.5349 -0.706864,-2.26196 -0.686667,-0.72706 -2.039807,-0.72706 -3.554514,0 -3.554514,4.07961 v 5.85687 h -1.130982 v -10.74433 h 0.929021 l 0.161569,1.85805 h 0.08078 q 0.424118,-0.88863 1.332943,-1.47432 0.929021,-0.58569 2.302356,-0.58569 z"
         style="font-style:normal;font-variant:normal;font-weight:300;font-stretch:normal;font-family:'Noto Sans';-inkscape-font-specification:'Noto Sans Light';fill:#ffffff;fill-opacity:1;stroke-width:0.63112831"
         id="path2596" />
      <path
         d="m 41.866126,657.83801 q 1.837846,0 2.807259,0.94922 0.969413,0.94922 0.969413,2.96883 v 7.02824 H 44.49162 v -6.94746 q 0,-1.5349 -0.706864,-2.26196 -0.686668,-0.72706 -2.039807,-0.72706 -3.554514,0 -3.554514,4.07961 v 5.85687 h -1.130982 v -10.74433 h 0.929021 l 0.161568,1.85805 h 0.08078 q 0.424118,-0.88863 1.332943,-1.47432 0.929021,-0.58569 2.302356,-0.58569 z"
         style="font-style:normal;font-variant:normal;font-weight:300;font-stretch:normal;font-family:'Noto Sans';-inkscape-font-specification:'Noto Sans Light';fill:#ffffff;fill-opacity:1;stroke-width:0.63112831"
         id="path2598" />
      <path
         d="m 53.16995,657.83801 q 1.373335,0 2.302356,0.64628 0.929021,0.62608 1.393531,1.73686 0.464511,1.11079 0.464511,2.54471 v 0.80785 h -7.674521 q 0,2.12059 0.98961,3.27177 0.989609,1.13098 2.847651,1.13098 1.009805,0 1.757061,-0.16157 0.747256,-0.16157 1.635884,-0.56549 v 1.0502 q -0.807844,0.36353 -1.595492,0.52509 -0.787648,0.16157 -1.837846,0.16157 -2.403336,0 -3.695887,-1.47431 -1.292551,-1.47432 -1.292551,-4.01903 0,-1.63588 0.545295,-2.90824 0.565491,-1.29255 1.615688,-2.01961 1.050198,-0.72706 2.54471,-0.72706 z m -0.0202,0.96942 q -1.474316,0 -2.403337,0.9896 -0.908825,0.98961 -1.070393,2.80726 h 6.442557 q 0,-1.69647 -0.727059,-2.74667 -0.706864,-1.05019 -2.241768,-1.05019 z"
         style="font-style:normal;font-variant:normal;font-weight:300;font-stretch:normal;font-family:'Noto Sans';-inkscape-font-specification:'Noto Sans Light';fill:#ffffff;fill-opacity:1;stroke-width:0.63112831"
         id="path2600" />
      <path
         d="m 64.555189,668.98626 q -2.362944,0 -3.655495,-1.43392 -1.272355,-1.45412 -1.272355,-4.07961 0,-1.79746 0.646276,-3.04962 0.646275,-1.27235 1.797453,-1.91863 1.171374,-0.66647 2.706278,-0.66647 0.787648,0 1.45412,0.14138 0.686668,0.14137 1.211766,0.38372 l -0.323137,1.00981 q -1.130982,-0.50491 -2.342749,-0.50491 -1.898434,0 -2.928435,1.23197 -1.030001,1.23196 -1.030001,3.35255 0,2.01961 0.908824,3.27177 0.908825,1.25216 2.807259,1.25216 0.807844,0 1.514708,-0.16157 0.706864,-0.16157 1.272355,-0.42412 v 1.03 q -0.525099,0.26255 -1.211767,0.40392 -0.686667,0.16157 -1.5551,0.16157 z"
         style="font-style:normal;font-variant:normal;font-weight:300;font-stretch:normal;font-family:'Noto Sans';-inkscape-font-specification:'Noto Sans Light';fill:#ffffff;fill-opacity:1;stroke-width:0.63112831"
         id="path2602" />
      <path
         d="m 72.907541,668.01685 q 0.444314,0 0.848236,-0.0606 0.424118,-0.0808 0.706864,-0.18176 v 0.92902 q -0.323138,0.12117 -0.767452,0.20196 -0.424118,0.0808 -0.949217,0.0808 -1.332943,0 -2.060003,-0.74725 -0.72706,-0.76746 -0.72706,-2.44373 v -6.82629 h -1.595492 v -0.64627 l 1.595492,-0.36353 0.403922,-2.48412 h 0.72706 v 2.5649 h 3.312162 v 0.92902 h -3.312162 v 6.7859 q 0,2.26196 1.81765,2.26196 z"
         style="font-style:normal;font-variant:normal;font-weight:300;font-stretch:normal;font-family:'Noto Sans';-inkscape-font-specification:'Noto Sans Light';fill:#ffffff;fill-opacity:1;stroke-width:0.63112831"
         id="path2604" />
      <path
         d="m 77.307134,654.06134 q 0.807844,0 0.807844,0.86843 0,0.88863 -0.807844,0.88863 -0.767452,0 -0.767452,-0.88863 0,-0.86843 0.767452,-0.86843 z m 0.565491,3.97863 v 10.74433 h -1.130982 v -10.74433 z"
         style="font-style:normal;font-variant:normal;font-weight:300;font-stretch:normal;font-family:'Noto Sans';-inkscape-font-specification:'Noto Sans Light';fill:#ffffff;fill-opacity:1;stroke-width:0.63112831"
         id="path2606" />
      <path
         d="m 86.242339,657.83801 q 1.837846,0 2.807259,0.94922 0.969413,0.94922 0.969413,2.96883 v 7.02824 h -1.151178 v -6.94746 q 0,-1.5349 -0.706864,-2.26196 -0.686668,-0.72706 -2.039807,-0.72706 -3.554514,0 -3.554514,4.07961 v 5.85687 h -1.130982 v -10.74433 h 0.929021 l 0.161568,1.85805 h 0.08078 q 0.424118,-0.88863 1.332943,-1.47432 0.929021,-0.58569 2.302356,-0.58569 z"
         style="font-style:normal;font-variant:normal;font-weight:300;font-stretch:normal;font-family:'Noto Sans';-inkscape-font-specification:'Noto Sans Light';fill:#ffffff;fill-opacity:1;stroke-width:0.63112831"
         id="path2608" />
      <path
         d="m 97.384594,657.83801 q 1.272355,0 2.100395,0.48471 0.848241,0.48471 1.353141,1.35314 h 0.0606 l 0.18176,-1.63589 h 0.92902 v 11.08767 q 0,2.12059 -1.09059,3.31216 -1.070391,1.19157 -3.534316,1.19157 -1.211766,0 -2.140787,-0.20196 -0.929021,-0.20196 -1.696473,-0.5251 v -1.11079 q 0.767452,0.38373 1.736865,0.60588 0.989609,0.24236 2.140787,0.24236 1.757062,0 2.585104,-0.92902 0.84823,-0.92902 0.84823,-2.52452 v -0.62608 q 0,-0.42411 0.0202,-0.84823 0.0202,-0.42412 0.0404,-0.82804 h -0.0606 q -0.44431,1.0502 -1.373331,1.57529 -0.929021,0.5251 -2.221572,0.5251 -2.100395,0 -3.271769,-1.41372 -1.151178,-1.41373 -1.151178,-4.07962 0,-2.6053 1.151178,-4.12 1.171374,-1.53491 3.392946,-1.53491 z m 0.121177,1.00981 q -1.736865,0 -2.605298,1.23196 -0.868433,1.21177 -0.868433,3.43334 0,2.20137 0.848237,3.35255 0.868432,1.15118 2.504317,1.15118 1.332943,0 2.080199,-0.5453 0.767457,-0.54529 1.090587,-1.49451 0.32314,-0.94921 0.32314,-2.16098 v -0.68667 q 0,-2.06 -0.76745,-3.17079 -0.747258,-1.11078 -2.605299,-1.11078 z"
         style="font-style:normal;font-variant:normal;font-weight:300;font-stretch:normal;font-family:'Noto Sans';-inkscape-font-specification:'Noto Sans Light';fill:#ffffff;fill-opacity:1;stroke-width:0.63112831"
         id="path2610" />
      <path
         d="m 111.06493,668.7843 v -14.42002 h 1.17137 v 13.36982 h 6.7455 v 1.0502 z"
         style="font-style:normal;font-variant:normal;font-weight:300;font-stretch:normal;font-family:'Noto Sans';-inkscape-font-specification:'Noto Sans Light';fill:#ffffff;fill-opacity:1;stroke-width:0.63112831"
         id="path2612" />
      <path
         d="m 121.80169,654.06134 q 0.80784,0 0.80784,0.86843 0,0.88863 -0.80784,0.88863 -0.76746,0 -0.76746,-0.88863 0,-0.86843 0.76746,-0.86843 z m 0.56549,3.97863 v 10.74433 h -1.13098 v -10.74433 z"
         style="font-style:normal;font-variant:normal;font-weight:300;font-stretch:normal;font-family:'Noto Sans';-inkscape-font-specification:'Noto Sans Light';fill:#ffffff;fill-opacity:1;stroke-width:0.63112831"
         id="path2614" />
      <path
         d="m 127.06119,653.43526 v 4.24118 q 0,0.56549 -0.0202,1.23197 -0.0202,0.66647 -0.0606,1.07039 h 0.0808 q 0.40392,-0.90883 1.31275,-1.51471 0.92902,-0.62608 2.34275,-0.62608 2.0802,0 3.23137,1.41373 1.15118,1.39353 1.15118,4.1402 0,2.54471 -1.17137,4.07961 -1.15118,1.51471 -3.37275,1.51471 -1.35314,0 -2.22157,-0.56549 -0.84824,-0.56549 -1.25216,-1.37333 h -0.10098 l -0.20196,1.73686 h -0.86844 v -15.34904 z m 3.51413,5.39236 q -1.87824,0 -2.70628,1.17138 -0.80785,1.17137 -0.80785,3.39294 v 0.14137 q 0,2.18118 0.76745,3.33236 0.78765,1.13098 2.58511,1.13098 1.73686,0 2.60529,-1.19157 0.88863,-1.21176 0.88863,-3.43333 0,-4.54413 -3.33235,-4.54413 z"
         style="font-style:normal;font-variant:normal;font-weight:300;font-stretch:normal;font-family:'Noto Sans';-inkscape-font-specification:'Noto Sans Light';fill:#ffffff;fill-opacity:1;stroke-width:0.63112831"
         id="path2616" />
      <path
         d="m 142.44273,657.85821 q 0.84824,0 1.45412,0.18176 l -0.16157,1.0502 q -0.32313,-0.0808 -0.64627,-0.12118 -0.32314,-0.0404 -0.68667,-0.0404 -1.49451,0 -2.36294,1.09059 -0.84824,1.0704 -0.84824,2.86785 v 5.89726 h -1.15118 v -10.74433 h 0.96942 l 0.12117,2.01961 h 0.0606 q 0.40392,-0.90882 1.21177,-1.5551 0.82804,-0.64627 2.0398,-0.64627 z"
         style="font-style:normal;font-variant:normal;font-weight:300;font-stretch:normal;font-family:'Noto Sans';-inkscape-font-specification:'Noto Sans Light';fill:#ffffff;fill-opacity:1;stroke-width:0.63112831"
         id="path2618" />
      <path
         d="m 149.4104,657.85821 q 1.81765,0 2.70628,0.88863 0.88862,0.88863 0.88862,2.80726 v 7.2302 h -0.86843 l -0.22216,-1.81765 h -0.0404 q -0.56549,0.90883 -1.41372,1.47432 -0.84824,0.54529 -2.34275,0.54529 -1.53491,0 -2.44373,-0.76745 -0.88863,-0.76745 -0.88863,-2.24177 0,-1.59549 1.29255,-2.44373 1.31275,-0.84823 3.83726,-0.94921 l 1.95902,-0.10098 v -0.74726 q 0,-1.59549 -0.64627,-2.24177 -0.62608,-0.66647 -1.85804,-0.66647 -0.82804,0 -1.5955,0.22216 -0.76745,0.20196 -1.5349,0.60588 l -0.36353,-0.92902 q 0.74726,-0.38373 1.65608,-0.62608 0.90882,-0.24235 1.87824,-0.24235 z m 2.46392,5.51354 -1.81765,0.0808 q -2.06,0.0808 -3.0698,0.70686 -1.00981,0.60589 -1.00981,1.83785 0,0.98961 0.62608,1.51471 0.62608,0.5049 1.71667,0.5049 1.67627,0 2.5851,-0.94922 0.92902,-0.94921 0.96941,-2.66588 z"
         style="font-style:normal;font-variant:normal;font-weight:300;font-stretch:normal;font-family:'Noto Sans';-inkscape-font-specification:'Noto Sans Light';fill:#ffffff;fill-opacity:1;stroke-width:0.63112831"
         id="path2620" />
      <path
         d="m 160.82434,657.85821 q 0.84824,0 1.45412,0.18176 l -0.16157,1.0502 q -0.32314,-0.0808 -0.64627,-0.12118 -0.32314,-0.0404 -0.68667,-0.0404 -1.49451,0 -2.36295,1.09059 -0.84823,1.0704 -0.84823,2.86785 v 5.89726 h -1.15118 v -10.74433 h 0.96941 l 0.12118,2.01961 h 0.0606 q 0.40392,-0.90882 1.21176,-1.5551 0.82804,-0.64627 2.03981,-0.64627 z"
         style="font-style:normal;font-variant:normal;font-weight:300;font-stretch:normal;font-family:'Noto Sans';-inkscape-font-specification:'Noto Sans Light';fill:#ffffff;fill-opacity:1;stroke-width:0.63112831"
         id="path2622" />
      <path
         d="m 164.95508,654.06134 q 0.80785,0 0.80785,0.86843 0,0.88863 -0.80785,0.88863 -0.76745,0 -0.76745,-0.88863 0,-0.86843 0.76745,-0.86843 z m 0.56549,3.97863 v 10.74433 h -1.13098 v -10.74433 z"
         style="font-style:normal;font-variant:normal;font-weight:300;font-stretch:normal;font-family:'Noto Sans';-inkscape-font-specification:'Noto Sans Light';fill:#ffffff;fill-opacity:1;stroke-width:0.63112831"
         id="path2624" />
      <path
         d="m 173.16322,657.83801 q 1.37334,0 2.30236,0.64628 0.92902,0.62608 1.39353,1.73686 0.46451,1.11079 0.46451,2.54471 v 0.80785 h -7.67452 q 0,2.12059 0.98961,3.27177 0.98961,1.13098 2.84765,1.13098 1.0098,0 1.75706,-0.16157 0.74726,-0.16157 1.63588,-0.56549 v 1.0502 q -0.80784,0.36353 -1.59549,0.52509 -0.78765,0.16157 -1.83784,0.16157 -2.40334,0 -3.69589,-1.47431 -1.29255,-1.47432 -1.29255,-4.01903 0,-1.63588 0.54529,-2.90824 0.56549,-1.29255 1.61569,-2.01961 1.0502,-0.72706 2.54471,-0.72706 z m -0.0202,0.96942 q -1.47431,0 -2.40333,0.9896 -0.90883,0.98961 -1.0704,2.80726 h 6.44256 q 0,-1.69647 -0.72706,-2.74667 -0.70686,-1.05019 -2.24177,-1.05019 z"
         style="font-style:normal;font-variant:normal;font-weight:300;font-stretch:normal;font-family:'Noto Sans';-inkscape-font-specification:'Noto Sans Light';fill:#ffffff;fill-opacity:1;stroke-width:0.63112831"
         id="path2626" />
      <path
         d="m 186.99219,665.93665 q 0,1.47432 -1.09059,2.26196 -1.07039,0.78765 -3.06981,0.78765 -1.13098,0 -1.99941,-0.20196 -0.84824,-0.20196 -1.43392,-0.4847 v -1.11079 q 0.70686,0.36353 1.61569,0.60588 0.90882,0.22216 1.85804,0.22216 1.57529,0 2.28216,-0.5251 0.70686,-0.54529 0.70686,-1.47431 0,-0.88863 -0.74726,-1.35314 -0.72706,-0.48471 -2.20137,-0.98961 -0.98961,-0.34334 -1.75706,-0.68667 -0.74726,-0.34333 -1.17138,-0.88863 -0.42411,-0.56549 -0.42411,-1.51471 0,-1.29255 1.05019,-2.01961 1.0502,-0.72706 2.80726,-0.72706 0.96941,0 1.79746,0.20196 0.84823,0.18177 1.5349,0.46451 l -0.40392,0.94922 q -0.62608,-0.28274 -1.41373,-0.46451 -0.78765,-0.18176 -1.5753,-0.18176 -1.27235,0 -1.97921,0.44431 -0.70687,0.44431 -0.70687,1.29255 0,0.64628 0.34334,1.03 0.34333,0.36353 0.9896,0.64628 0.64628,0.26255 1.5753,0.58568 0.94922,0.32314 1.71667,0.68667 0.78765,0.36353 1.23196,0.92902 0.46451,0.56549 0.46451,1.51471 z"
         style="font-style:normal;font-variant:normal;font-weight:300;font-stretch:normal;font-family:'Noto Sans';-inkscape-font-specification:'Noto Sans Light';fill:#ffffff;fill-opacity:1;stroke-width:0.63112831"
         id="path2628" />
    </g>
  </g>
</svg>
